HIERARCHY
ROOT Root
{
  OFFSET 0.0 0.0 0.0
  CHANNELS 6 Xposition Yposition Zposition Zrotation Yrotation Xrotation
  JOINT Hips
  {
    OFFSET 0.0 100.0 0.0
    CHANNELS 6 Xposition Yposition Zposition Zrotation Yrotation Xrotation
    JOINT Spine1
    {
      OFFSET 5.003913 -0.037094 -0.013727
      CHANNELS 3 Zrotation Yrotation Xrotation
      JOINT Spine2
      {
        OFFSET 7.125363 -1e-06 0.0
        CHANNELS 3 Zrotation Yrotation Xrotation
        JOINT Chest
        {
          OFFSET 7.594027 1e-06 0.0
          CHANNELS 3 Zrotation Yrotation Xrotation
          JOINT Neck1
          {
            OFFSET 26.313086 -0.460272 -0.181672
            CHANNELS 3 Zrotation Yrotation Xrotation
            JOINT Neck2
            {
              OFFSET 8.045911 0.0 0.0
              CHANNELS 3 Zrotation Yrotation Xrotation
              JOINT Head
              {
                OFFSET 6.432774 0.0 0.0
                CHANNELS 3 Zrotation Yrotation Xrotation
                JOINT HeadEnd
                {
                  OFFSET 16.169773 0.06451 0.00362
                  CHANNELS 3 Zrotation Yrotation Xrotation
                }
                JOINT Jaw
                {
                  OFFSET 0.108741 3.12938 0.002639
                  CHANNELS 3 Zrotation Yrotation Xrotation
                }
                JOINT LeftEye
                {
                  OFFSET 4.45173 8.166359 3.206392
                  CHANNELS 3 Zrotation Yrotation Xrotation
                }
                JOINT RightEye
                {
                  OFFSET 4.436895 8.135758 -3.222429
                  CHANNELS 3 Zrotation Yrotation Xrotation
                }
              }
            }
          }
          JOINT LeftShoulder
          {
            OFFSET 23.218927 5.195579 1.621656
            CHANNELS 3 Zrotation Yrotation Xrotation
            JOINT LeftArm
            {
              OFFSET 15.902118 2e-06 -2e-06
              CHANNELS 3 Zrotation Yrotation Xrotation
              JOINT LeftForeArm
              {
                OFFSET 28.739307 0.0 -1e-06
                CHANNELS 3 Zrotation Yrotation Xrotation
                JOINT LeftHand
                {
                  OFFSET 27.093981 -4e-06 0.0
                  CHANNELS 3 Zrotation Yrotation Xrotation
                  JOINT LeftHandThumb1
                  {
                    OFFSET 2.276781 3.380274 0.83384
                    CHANNELS 3 Zrotation Yrotation Xrotation
                    JOINT LeftHandThumb2
                    {
                      OFFSET 4.705309 -1e-06 -1e-06
                      CHANNELS 3 Zrotation Yrotation Xrotation
                      JOINT LeftHandThumb3
                      {
                        OFFSET 2.798515 0.0 3e-06
                        CHANNELS 3 Zrotation Yrotation Xrotation
                        JOINT LeftHandThumbEnd
                        {
                          OFFSET 3.180793 4e-06 -4e-06
                          CHANNELS 3 Zrotation Yrotation Xrotation
                        }
                      }
                    }
                  }
                  JOINT LeftHandIndex1
                  {
                    OFFSET 3.247786 2.352677 0.137192
                    CHANNELS 3 Zrotation Yrotation Xrotation
                    JOINT LeftHandIndex2
                    {
                      OFFSET 6.367095 1e-06 0.0
                      CHANNELS 3 Zrotation Yrotation Xrotation
                      JOINT LeftHandIndex3
                      {
                        OFFSET 3.662364 0.0 0.0
                        CHANNELS 3 Zrotation Yrotation Xrotation
                        JOINT LeftHandIndex4
                        {
                          OFFSET 2.329242 4e-06 -4e-06
                          CHANNELS 3 Zrotation Yrotation Xrotation
                          JOINT LeftHandIndexEnd
                          {
                            OFFSET 2.767823 1e-06 0.0
                            CHANNELS 3 Zrotation Yrotation Xrotation
                          }
                        }
                      }
                    }
                  }
                  JOINT LeftHandMiddle1
                  {
                    OFFSET 3.163612 0.945023 -0.406112
                    CHANNELS 3 Zrotation Yrotation Xrotation
                    JOINT LeftHandMiddle2
                    {
                      OFFSET 6.276789 3e-06 0.0
                      CHANNELS 3 Zrotation Yrotation Xrotation
                      JOINT LeftHandMiddle3
                      {
                        OFFSET 4.35652 -1e-06 4e-06
                        CHANNELS 3 Zrotation Yrotation Xrotation
                        JOINT LeftHandMiddle4
                        {
                          OFFSET 2.996877 0.0 8e-06
                          CHANNELS 3 Zrotation Yrotation Xrotation
                          JOINT LeftHandMiddleEnd
                          {
                            OFFSET 2.323256 3e-06 -4e-06
                            CHANNELS 3 Zrotation Yrotation Xrotation
                          }
                        }
                      }
                    }
                  }
                  JOINT LeftHandRing1
                  {
                    OFFSET 2.882606 -0.309162 0.107445
                    CHANNELS 3 Zrotation Yrotation Xrotation
                    JOINT LeftHandRing2
                    {
                      OFFSET 6.033198 0.0 4e-06
                      CHANNELS 3 Zrotation Yrotation Xrotation
                      JOINT LeftHandRing3
                      {
                        OFFSET 4.350578 3e-06 0.0
                        CHANNELS 3 Zrotation Yrotation Xrotation
                        JOINT LeftHandRing4
                        {
                          OFFSET 2.651321 2e-06 -7e-06
                          CHANNELS 3 Zrotation Yrotation Xrotation
                          JOINT LeftHandRingEnd
                          {
                            OFFSET 1.937663 1e-06 -4e-06
                            CHANNELS 3 Zrotation Yrotation Xrotation
                          }
                        }
                      }
                    }
                  }
                  JOINT LeftHandPinky1
                  {
                    OFFSET 2.865315 -1.525436 0.575687
                    CHANNELS 3 Zrotation Yrotation Xrotation
                    JOINT LeftHandPinky2
                    {
                      OFFSET 5.54936 1e-06 -8e-06
                      CHANNELS 3 Zrotation Yrotation Xrotation
                      JOINT LeftHandPinky3
                      {
                        OFFSET 3.070974 0.0 -4e-06
                        CHANNELS 3 Zrotation Yrotation Xrotation
                        JOINT LeftHandPinky4
                        {
                          OFFSET 1.549672 1e-06 0.0
                          CHANNELS 3 Zrotation Yrotation Xrotation
                          JOINT LeftHandPinkyEnd
                          {
                            OFFSET 1.952123 0.0 0.0
                            CHANNELS 3 Zrotation Yrotation Xrotation
                          }
                        }
                      }
                    }
                  }
                }
              }
            }
          }
          JOINT RightShoulder
          {
            OFFSET 23.161716 5.296122 -1.380114
            CHANNELS 3 Zrotation Yrotation Xrotation
            JOINT RightArm
            {
              OFFSET -16.027195 -2e-06 1.1e-05
              CHANNELS 3 Zrotation Yrotation Xrotation
              JOINT RightForeArm
              {
                OFFSET -28.736639 4e-06 2e-06
                CHANNELS 3 Zrotation Yrotation Xrotation
                JOINT RightHand
                {
                  OFFSET -27.133619 6e-06 0.0
                  CHANNELS 3 Zrotation Yrotation Xrotation
                  JOINT RightHandThumb1
                  {
                    OFFSET -2.274328 -3.351035 -0.83067
                    CHANNELS 3 Zrotation Yrotation Xrotation
                    JOINT RightHandThumb2
                    {
                      OFFSET -4.703594 -3e-06 2e-06
                      CHANNELS 3 Zrotation Yrotation Xrotation
                      JOINT RightHandThumb3
                      {
                        OFFSET -2.794935 -4e-06 -3e-06
                        CHANNELS 3 Zrotation Yrotation Xrotation
                        JOINT RightHandThumbEnd
                        {
                          OFFSET -3.183852 4e-06 1e-06
                          CHANNELS 3 Zrotation Yrotation Xrotation
                        }
                      }
                    }
                  }
                  JOINT RightHandIndex1
                  {
                    OFFSET -3.253496 -2.33755 -0.127667
                    CHANNELS 3 Zrotation Yrotation Xrotation
                    JOINT RightHandIndex2
                    {
                      OFFSET -6.344434 0.0 0.0
                      CHANNELS 3 Zrotation Yrotation Xrotation
                      JOINT RightHandIndex3
                      {
                        OFFSET -3.654871 0.0 -8e-06
                        CHANNELS 3 Zrotation Yrotation Xrotation
                        JOINT RightHandIndex4
                        {
                          OFFSET -2.327586 -1e-06 0.0
                          CHANNELS 3 Zrotation Yrotation Xrotation
                          JOINT RightHandIndexEnd
                          {
                            OFFSET -2.770001 3e-06 8e-06
                            CHANNELS 3 Zrotation Yrotation Xrotation
                          }
                        }
                      }
                    }
                  }
                  JOINT RightHandMiddle1
                  {
                    OFFSET -3.168223 -0.944764 0.411762
                    CHANNELS 3 Zrotation Yrotation Xrotation
                    JOINT RightHandMiddle2
                    {
                      OFFSET -6.266691 -1e-06 -4e-06
                      CHANNELS 3 Zrotation Yrotation Xrotation
                      JOINT RightHandMiddle3
                      {
                        OFFSET -4.348901 0.0 0.0
                        CHANNELS 3 Zrotation Yrotation Xrotation
                        JOINT RightHandMiddle4
                        {
                          OFFSET -3.00024 2e-06 -4e-06
                          CHANNELS 3 Zrotation Yrotation Xrotation
                          JOINT RightHandMiddleEnd
                          {
                            OFFSET -2.321477 -4e-06 -4e-06
                            CHANNELS 3 Zrotation Yrotation Xrotation
                          }
                        }
                      }
                    }
                  }
                  JOINT RightHandRing1
                  {
                    OFFSET -2.885654 0.293261 -0.119232
                    CHANNELS 3 Zrotation Yrotation Xrotation
                    JOINT RightHandRing2
                    {
                      OFFSET -6.032835 -1e-06 -4e-06
                      CHANNELS 3 Zrotation Yrotation Xrotation
                      JOINT RightHandRing3
                      {
                        OFFSET -4.33881 0.0 -4e-06
                        CHANNELS 3 Zrotation Yrotation Xrotation
                        JOINT RightHandRing4
                        {
                          OFFSET -2.654903 -4e-06 -4e-06
                          CHANNELS 3 Zrotation Yrotation Xrotation
                          JOINT RightHandRingEnd
                          {
                            OFFSET -1.935122 0.0 4e-06
                            CHANNELS 3 Zrotation Yrotation Xrotation
                          }
                        }
                      }
                    }
                  }
                  JOINT RightHandPinky1
                  {
                    OFFSET -2.866241 1.503904 -0.60527
                    CHANNELS 3 Zrotation Yrotation Xrotation
                    JOINT RightHandPinky2
                    {
                      OFFSET -5.553177 -2e-06 0.0
                      CHANNELS 3 Zrotation Yrotation Xrotation
                      JOINT RightHandPinky3
                      {
                        OFFSET -3.062664 -1e-06 -4e-06
                        CHANNELS 3 Zrotation Yrotation Xrotation
                        JOINT RightHandPinky4
                        {
                          OFFSET -1.546529 2e-06 4e-06
                          CHANNELS 3 Zrotation Yrotation Xrotation
                          JOINT RightHandPinkyEnd
                          {
                            OFFSET -1.952341 0.0 -4e-06
                            CHANNELS 3 Zrotation Yrotation Xrotation
                          }
                        }
                      }
                    }
                  }
                }
              }
            }
          }
        }
      }
    }
    JOINT LeftLeg
    {
      OFFSET -8.443107 2.567604 10.043214
      CHANNELS 3 Zrotation Yrotation Xrotation
      JOINT LeftShin
      {
        OFFSET 43.229198 1e-06 -1e-06
        CHANNELS 3 Zrotation Yrotation Xrotation
        JOINT LeftFoot
        {
          OFFSET 42.298611 1e-06 1e-06
          CHANNELS 3 Zrotation Yrotation Xrotation
          JOINT LeftToeBase
          {
            OFFSET 14.165858 1e-06 0.0
            CHANNELS 3 Zrotation Yrotation Xrotation
            JOINT LeftToeEnd
            {
              OFFSET 6.7141 -0.234461 0.0
              CHANNELS 3 Zrotation Yrotation Xrotation
            }
          }
        }
      }
    }
    JOINT RightLeg
    {
      OFFSET -8.303923 2.592729 -10.047278
      CHANNELS 3 Zrotation Yrotation Xrotation
      JOINT RightShin
      {
        OFFSET -43.369682 0.0 1e-06
        CHANNELS 3 Zrotation Yrotation Xrotation
        JOINT RightFoot
        {
          OFFSET -42.260784 4e-06 2e-06
          CHANNELS 3 Zrotation Yrotation Xrotation
          JOINT RightToeBase
          {
            OFFSET -14.222245 -2e-06 -1e-06
            CHANNELS 3 Zrotation Yrotation Xrotation
            JOINT RightToeEnd
            {
              OFFSET -6.660062 0.232574 -2e-06
              CHANNELS 3 Zrotation Yrotation Xrotation
            }
          }
        }
      }
    }
  }
}
MOTION
Frames: 4
Frame Time: 0.03333333333333333
0.0 0.0 0.0 0.0 -0.0 0.0 -1.217189 49.308075 -0.648684 90.471031 -59.869015 91.021202 12.203679 -2.039253 -0.07653 -4.421582 -1.601043 0.300433 20.165594 -3.255981 -2.166361 18.480751 7.162435 3.752216 -2.935452 -0.763471 -3.109956 -30.151676 -0.18507 -3.644373 5e-06 -0.0 -0.0 -0.132993 -0.195952 0.040203 -0.044045 -0.114339 0.08006 -0.053434 -0.286904 0.014277 -21.657928 -58.030346 18.307402 88.780342 -1.732911 -37.883892 10.68132 -1.320547 -0.173294 25.116158 78.305367 31.664181 17.636633 -26.322731 52.41119 -19.466656 -14.395598 29.410381 -0.0 -8.774819 -2e-06 16.125977 -18.120617 6.684147 -0.609777 -1.795653 -3.889327 -4.807087 -11.046809 -2.93785 4e-06 -20.976019 1e-06 -5.019972 -25.033556 -4.03188 6e-06 1e-06 1e-06 -10.634535 -5.686969 -3.565587 10.573274 -17.922949 -3.1139 3e-06 -13.821209 2e-06 -0.501779 -31.181505 -4.027014 -10.34406 -59.052395 6.64092 -13.982714 -7.150197 -2.875042 13.77273 -8.40149 -3.21824 0.347732 -34.211544 0.771655 -0.963029 -17.733366 2.62102 -0.0 -1e-06 0.0 -17.346416 -20.095217 -4.20178 21.757557 -1.638375 3.866428 1e-06 -6.338824 1e-06 -1.69759 -22.591742 -6.194006 -0.0 -4e-06 -1e-06 158.302917 -57.372646 16.975922 83.811539 -5.790379 -45.809814 13.194652 0.469202 -0.18105 33.266247 52.571522 34.255833 22.182119 -20.375895 49.933331 -16.701818 -16.74353 28.476536 -2e-06 -12.690604 -0.0 15.950469 -16.955982 3.004519 -0.105919 -1.513856 -4.275883 -5.039042 -5.612872 -2.953557 4e-06 -11.020525 -3e-06 -6.111298 -15.895338 -3.840473 -0.0 0.0 -0.0 -10.283373 -5.680289 -4.34184 11.028296 -11.302406 -2.372634 -1.384268 -14.238583 -6.320124 -0.625437 -26.924194 -3.827604 -4.396218 -49.450397 -2.95781 -13.708528 -7.363478 -3.720942 18.141157 -14.052737 -3.242675 6e-06 -18.787273 -3e-06 -0.429712 -8.456045 2.555504 -0.0 0.0 0.0 -15.923539 -20.094486 -5.473588 30.419222 -7.190827 1.735926 2e-06 -8.162929 -0.0 -1.861903 -22.861473 -6.167944 0.0 -4e-06 -1e-06 110.274055 -3.743656 -1.790047 123.301132 0.617651 0.631915 -103.077438 3.131898 -1.457261 -31.470467 1.826571 1.38709 -0.999999 -0.0 0.0 -62.55965 -4.70306 -1.841719 115.55262 0.463439 0.401853 -92.152733 2.26123 5.66305 -30.63319 0.996965 1.314807 -1.000001 0.0 0.0 
0.0 0.0 0.0 0.0 -0.0 0.0 -1.415234 49.514557 -0.297548 90.087296 -59.825012 91.818336 12.095653 -1.858097 -0.075209 -4.544162 -1.659712 0.352263 20.371965 -3.315559 -2.048224 18.407742 7.252527 3.51363 -2.965359 -0.631196 -3.153579 -29.867905 -0.296836 -3.756119 6e-06 0.0 -0.0 -0.155101 -0.203812 0.025836 -0.018399 -0.138449 0.069778 -0.032499 -0.278389 -0.004449 -20.555292 -58.204025 17.370241 89.105087 -1.436719 -38.249695 10.038368 -1.355053 -0.183698 29.21092 77.652115 35.441509 17.636637 -26.322741 52.411213 -19.466665 -14.3956 29.410395 -1e-06 -8.774823 -2e-06 16.273624 -18.112871 6.588515 -0.609777 -1.795655 -3.889329 -4.807089 -11.046813 -2.93785 4e-06 -20.976023 -1e-06 -5.01997 -25.03356 -4.031881 6e-06 -1e-06 1e-06 -10.634535 -5.686973 -3.565589 10.573275 -17.922955 -3.113901 2e-06 -13.821216 2e-06 -0.501779 -31.181511 -4.027016 -9.79935 -59.061413 6.28702 -13.982718 -7.150201 -2.875043 13.772733 -8.401495 -3.218241 0.347732 -34.211563 0.771655 -0.963029 -17.733374 2.621021 -0.0 -1e-06 -1e-06 -17.346422 -20.095224 -4.201784 21.757561 -1.638376 3.86643 1e-06 -6.338827 1e-06 -1.69759 -22.591751 -6.194007 -0.0 -4e-06 -2e-06 158.634857 -57.377018 17.117182 83.269722 -5.738873 -45.838501 13.125322 0.572492 -0.166868 33.076805 52.03027 34.485157 22.182116 -20.375896 49.933319 -16.701813 -16.74353 28.476532 -3e-06 -12.6906 -0.0 15.960189 -16.913755 2.908678 -0.10592 -1.513856 -4.275882 -5.039041 -5.612871 -2.953557 4e-06 -11.02052 -2e-06 -6.111297 -15.895334 -3.840471 -0.0 -2e-06 -0.0 -10.283368 -5.680288 -4.341838 11.028293 -11.302401 -2.372633 -1.384269 -14.238579 -6.320121 -0.625438 -26.924191 -3.827602 -4.236834 -49.595081 -2.948391 -13.708523 -7.363475 -3.72094 18.141146 -14.05274 -3.242675 6e-06 -18.78727 -2e-06 -0.429713 -8.456045 2.555503 -0.0 -0.0 0.0 -15.923532 -20.094484 -5.473585 30.419207 -7.19082 1.735926 2e-06 -8.162926 -1e-06 -1.861903 -22.861469 -6.167943 -0.0 -3e-06 -1e-06 109.830208 -3.760879 -1.090397 123.534996 0.518776 0.614004 -103.246498 2.783266 -1.765391 -30.475994 1.840902 1.390985 -0.999999 -0.0 0.0 -62.020733 -4.710193 -2.380813 114.825005 0.456425 0.373004 -91.564125 2.045891 5.733339 -29.481253 0.968211 1.346486 -1.000002 -0.0 -0.0 
0.0 0.0 0.0 0.0 -0.0 0.0 -1.615857 49.664593 0.120768 89.883926 -59.678787 92.414818 12.040401 -1.78646 -0.044519 -4.602013 -1.588204 0.49273 20.611578 -3.369925 -2.065078 18.328995 7.402044 3.331703 -2.941783 -0.710736 -3.226362 -29.62417 -0.327044 -3.918089 6e-06 -0.0 -0.0 -0.160193 -0.240691 0.036187 -0.036129 -0.188561 0.078401 -0.042898 -0.300697 0.004548 -19.2379 -58.303078 16.319046 89.182343 -1.212335 -38.534683 9.678603 -1.334936 -0.193669 30.776094 77.107819 36.449131 17.636631 -26.322729 52.411198 -19.466661 -14.395597 29.410389 -1e-06 -8.774821 -2e-06 16.208702 -18.12322 6.507082 -0.609776 -1.795654 -3.889328 -4.80709 -11.046809 -2.93785 5e-06 -20.976019 -1e-06 -5.01997 -25.033556 -4.03188 5e-06 -1e-06 -1e-06 -10.634535 -5.68697 -3.565588 10.573275 -17.922949 -3.113901 2e-06 -13.82121 1e-06 -0.501776 -31.181505 -4.027017 -9.729648 -58.98415 6.298734 -13.982715 -7.150198 -2.875043 13.77273 -8.401491 -3.218242 0.347734 -34.211552 0.771654 -0.963028 -17.73337 2.621021 -0.0 -1e-06 -0.0 -17.346416 -20.095217 -4.201784 21.757563 -1.638376 3.866429 2e-06 -6.338822 1e-06 -1.697589 -22.591742 -6.194007 0.0 -6e-06 -2e-06 159.264877 -57.337021 16.934998 82.503044 -5.590634 -45.823841 13.145669 0.518176 -0.17236 32.83564 51.690529 35.154587 22.182117 -20.375895 49.933319 -16.701805 -16.74353 28.476522 -3e-06 -12.690601 -0.0 15.87293 -16.824715 2.925645 -0.10592 -1.513855 -4.275881 -5.039041 -5.612871 -2.953557 4e-06 -11.02052 -2e-06 -6.111297 -15.89533 -3.84047 0.0 -0.0 0.0 -10.283369 -5.680287 -4.341838 11.028294 -11.302401 -2.372631 -1.384269 -14.238576 -6.32012 -0.625439 -26.924183 -3.827599 -4.202046 -49.544575 -2.909813 -13.708524 -7.363475 -3.72094 18.141148 -14.052737 -3.242672 6e-06 -18.78727 -1e-06 -0.429713 -8.456041 2.555504 0.0 -0.0 1e-06 -15.923534 -20.094479 -5.473585 30.41921 -7.190826 1.735929 2e-06 -8.162921 1e-06 -1.861903 -22.861464 -6.167938 -1e-06 -2e-06 -1e-06 109.421219 -3.778022 -0.266412 123.866928 0.42349 0.610984 -102.967125 3.345665 -2.446436 -29.609831 1.859722 1.428783 -1.000001 -0.0 -0.0 -61.299004 -4.707512 -2.829872 114.02803 0.431131 0.343473 -90.610413 1.937851 5.934225 -29.386585 0.957115 1.32873 -1.000003 -0.0 -0.0 
0.0 0.0 0.0 0.0 -0.0 0.0 -1.840622 49.817425 0.491957 89.847 -59.586292 92.818642 12.001223 -1.747968 0.005181 -4.641779 -1.543615 0.563813 20.82358 -3.396816 -2.109678 18.294111 7.445956 3.201682 -2.944168 -0.751176 -3.331495 -29.447176 -0.440828 -3.991275 7e-06 -0.0 -0.0 -0.163182 -0.246667 0.04193 -0.08038 -0.199084 0.074333 -0.079669 -0.301467 0.018225 -18.116465 -58.378788 15.450979 89.157455 -1.073068 -38.86211 9.458265 -1.353075 -0.207946 32.333202 76.99485 37.730785 17.636627 -26.322735 52.41119 -19.46666 -14.395598 29.410393 0.0 -8.774821 -1e-06 16.116936 -18.112803 6.442307 -0.609776 -1.795653 -3.889328 -4.80709 -11.046811 -2.93785 2e-06 -20.976021 1e-06 -5.019971 -25.03356 -4.03188 5e-06 0.0 -0.0 -10.634535 -5.686971 -3.565588 10.573272 -17.922947 -3.1139 2e-06 -13.82121 2e-06 -0.501778 -31.181505 -4.027018 -9.605635 -58.869892 6.18533 -13.982715 -7.150198 -2.875042 13.772731 -8.401491 -3.218242 0.347731 -34.211555 0.771656 -0.96303 -17.733372 2.621021 -0.0 -1e-06 0.0 -17.346422 -20.095217 -4.201782 21.757557 -1.638375 3.866427 1e-06 -6.338825 1e-06 -1.69759 -22.591747 -6.194007 -0.0 -6e-06 -2e-06 159.771591 -57.098587 16.645891 81.873238 -5.545585 -45.974693 13.27526 0.439619 -0.174841 32.54237 51.499001 35.798393 22.182131 -20.3759 49.933331 -16.701822 -16.74353 28.476534 -3e-06 -12.690604 -2e-06 15.861704 -16.800093 2.958754 -0.105921 -1.513856 -4.275882 -5.039042 -5.612873 -2.953557 5e-06 -11.020525 -2e-06 -6.111299 -15.895338 -3.840473 0.0 -1e-06 0.0 -10.283373 -5.680288 -4.341841 11.028296 -11.302407 -2.372633 -1.384268 -14.238582 -6.320123 -0.625436 -26.924192 -3.827603 -4.192536 -49.571472 -2.875511 -13.708529 -7.36348 -3.720941 18.141153 -14.052742 -3.242674 6e-06 -18.787273 -3e-06 -0.429711 -8.456045 2.555504 0.0 1e-06 0.0 -15.923539 -20.094484 -5.473589 30.419222 -7.19083 1.735929 1e-06 -8.162928 -0.0 -1.861899 -22.861473 -6.167946 0.0 -3e-06 -2e-06 108.826981 -3.76735 0.498922 124.50502 0.350158 0.606989 -102.616119 4.006232 -3.142642 -28.827787 1.878561 1.472767 -0.999998 0.0 0.0 -60.727276 -4.723538 -3.19994 113.322556 0.414055 0.320162 -89.765015 1.807432 6.118727 -29.565331 0.949549 1.31746 -1.000003 -0.0 0.0 
